HIERARCHY
ROOT joint_0
{
	OFFSET 0.000000 0.000000 0.000000
	CHANNELS 6 Xposition Yposition Zposition Zrotation Yrotation Xrotation 
	JOINT joint_1
	{
		OFFSET 6.590088 -1.122192 114.019043
		CHANNELS 3 Zrotation Yrotation Xrotation
		JOINT joint_2
		{
			OFFSET -5.956055 -0.820435 104.151001
			CHANNELS 3 Zrotation Yrotation Xrotation
			JOINT joint_3
			{
				OFFSET -7.343506 -1.103027 103.942993
				CHANNELS 3 Zrotation Yrotation Xrotation
				JOINT joint_4
				{
					OFFSET 3.109131 -2.857056 147.715942
					CHANNELS 3 Zrotation Yrotation Xrotation
					JOINT joint_5
					{
						OFFSET 28.592285 -2.852295 87.703979
						CHANNELS 3 Zrotation Yrotation Xrotation
						End Site
						{
							OFFSET 0.000000 0.000000 0.000000
						}
					}
				}
				JOINT joint_6
				{
					OFFSET -0.332520 -33.687378 82.401978
					CHANNELS 3 Zrotation Yrotation Xrotation
					JOINT joint_7
					{
						OFFSET -7.397461 -168.719177 -22.750977
						CHANNELS 3 Zrotation Yrotation Xrotation
						JOINT joint_8
						{
							OFFSET 17.065918 -24.903137 -272.721069
							CHANNELS 3 Zrotation Yrotation Xrotation
							JOINT joint_9
							{
								OFFSET 33.311279 -37.031616 -278.192993
								CHANNELS 3 Zrotation Yrotation Xrotation
								End Site
								{
									OFFSET 0.000000 0.000000 0.000000
								}
							}
						}
					}
				}
				JOINT joint_10
				{
					OFFSET 3.914307 30.461670 83.552979
					CHANNELS 3 Zrotation Yrotation Xrotation
					JOINT joint_11
					{
						OFFSET 15.543701 166.845459 -30.963013
						CHANNELS 3 Zrotation Yrotation Xrotation
						JOINT joint_12
						{
							OFFSET 35.734863 35.017700 -269.786011
							CHANNELS 3 Zrotation Yrotation Xrotation
							JOINT joint_13
							{
								OFFSET 70.506592 13.977783 -273.320007
								CHANNELS 3 Zrotation Yrotation Xrotation
								End Site
								{
									OFFSET 0.000000 0.000000 0.000000
								}
							}
						}
					}
				}
			}
		}
	}
	JOINT joint_14
	{
		OFFSET -0.314697 -95.093994 -116.004028
		CHANNELS 3 Zrotation Yrotation Xrotation
		JOINT joint_15
		{
			OFFSET -22.490723 2.017883 -455.510986
			CHANNELS 3 Zrotation Yrotation Xrotation
			JOINT joint_16
			{
				OFFSET -46.427490 7.144104 -496.360985
				CHANNELS 3 Zrotation Yrotation Xrotation
				JOINT joint_17
				{
					OFFSET 209.055420 -37.122803 -85.191002
					CHANNELS 3 Zrotation Yrotation Xrotation
					End Site
					{
						OFFSET 0.000000 0.000000 0.000000
					}
				}
			}
		}
	}
	JOINT joint_18
	{
		OFFSET 5.652832 94.642578 -116.244019
		CHANNELS 3 Zrotation Yrotation Xrotation
		JOINT joint_19
		{
			OFFSET -12.379883 -7.332642 -455.843994
			CHANNELS 3 Zrotation Yrotation Xrotation
			JOINT joint_20
			{
				OFFSET -45.227051 -8.172241 -496.457985
				CHANNELS 3 Zrotation Yrotation Xrotation
				JOINT joint_21
				{
					OFFSET 210.522949 -11.530396 -88.809004
					CHANNELS 3 Zrotation Yrotation Xrotation
					End Site
					{
						OFFSET 0.000000 0.000000 0.000000
					}
				}
			}
		}
	}
}
MOTION
Frames: 6
Frame Time: 0.016667
-2552.156250 946.666931 1168.077026 -3.354582 6.878496 1.814756 0.560658 -1.380147 -4.952333 1.075880 0.188173 1.031729 0.938930 -0.294477 -0.850730 0.614581 -8.122652 -2.451953 0.000000 0.000000 0.000000 -0.243882 4.853496 -0.134370 0.675847 4.845139 -1.177931 3.765170 -24.338041 8.664243 0.000000 0.000000 0.000000 5.868019 5.305045 2.700530 1.367756 4.162691 5.331014 -0.602172 -7.760283 -0.475268 0.000000 0.000000 0.000000 1.314218 -29.233904 -19.837867 2.609869 50.775739 16.790256 -0.318825 -1.645027 -0.238673 0.000000 0.000000 0.000000 1.925426 -19.627362 7.966623 4.584314 11.799899 2.957163 5.522108 3.403508 2.303265 0.000000 0.000000 0.000000 
-2543.225342 939.690674 1168.862061 -3.862253 6.475187 1.867352 0.834726 -0.762996 -4.665729 1.194843 0.094777 1.024351 1.057230 -0.180509 -0.827045 0.645466 -8.287621 -2.521534 0.000000 0.000000 0.000000 -0.035243 4.675934 0.022574 0.648541 4.707710 -1.255831 3.722569 -24.212426 8.562230 0.000000 0.000000 0.000000 5.931909 5.564974 2.656828 1.287990 4.396587 5.262566 -0.470704 -6.704794 -0.230516 0.000000 0.000000 0.000000 0.236428 -29.679629 -18.671441 0.892768 47.311647 13.163845 -3.648338 -1.660449 -1.455337 0.000000 0.000000 0.000000 2.428339 -18.578633 8.206818 4.617972 11.723079 2.984381 5.505146 3.390265 2.296165 0.000000 0.000000 0.000000 
-2534.201172 932.056580 1168.994995 -4.209072 6.192369 2.019100 1.045340 -0.397079 -4.439350 1.302662 0.059522 0.996045 1.167654 -0.098960 -0.808248 0.670656 -8.361481 -2.570953 0.000000 0.000000 0.000000 0.092234 4.559314 0.133258 0.627640 4.616103 -1.292970 3.691720 -24.190095 8.435466 0.000000 0.000000 0.000000 5.990980 5.809911 2.682088 1.198888 4.624322 5.180225 -0.326731 -5.594427 0.052987 0.000000 0.000000 0.000000 -0.567074 -29.724479 -17.574164 -0.608031 42.855766 9.732890 -5.592479 -1.418817 -2.156786 0.000000 0.000000 0.000000 2.891958 -17.731454 8.381998 4.630166 11.744089 2.986818 5.472148 3.287641 2.278240 0.000000 0.000000 0.000000 
-2524.943848 923.698303 1168.255981 -4.383629 6.280109 2.320674 1.204742 -0.658863 -4.310678 1.426399 0.186776 0.923521 1.296802 -0.093989 -0.804516 0.682462 -8.273388 -2.577114 0.000000 0.000000 0.000000 0.035323 4.555889 0.173127 0.621055 4.605933 -1.260435 3.687543 -24.313314 8.349345 0.000000 0.000000 0.000000 6.054626 6.047607 2.879299 1.095813 4.870282 4.998918 -0.158681 -4.416004 0.413605 0.000000 0.000000 0.000000 -0.816346 -29.352220 -16.629663 -1.587696 36.439436 6.517089 -5.566261 -0.688765 -2.089588 0.000000 0.000000 0.000000 3.350431 -17.335578 8.407105 4.632065 11.835580 2.976249 5.427417 3.050948 2.250742 0.000000 0.000000 0.000000 
-2515.594238 914.680176 1166.865967 -4.177988 6.342843 2.805156 1.259321 -0.883014 -4.375495 1.451497 0.224279 0.890848 1.316012 -0.117173 -0.799870 0.686678 -8.091017 -2.557703 0.000000 0.000000 0.000000 -0.103669 4.612293 0.178903 0.619726 4.641628 -1.195015 3.694389 -24.540143 8.237959 0.000000 0.000000 0.000000 6.109721 6.268708 3.148095 0.988077 5.108975 4.808335 0.027383 -3.183880 0.824224 0.000000 0.000000 0.000000 -0.786172 -28.107285 -15.874325 -2.041533 28.532816 3.399026 -4.531618 1.261606 -1.417530 0.000000 0.000000 0.000000 3.710609 -17.023883 8.248762 4.541379 12.014481 2.980694 5.306065 2.755749 2.188772 0.000000 0.000000 0.000000 
-2506.398438 905.353455 1164.911987 -3.493003 6.077658 3.401027 1.155173 -0.632903 -4.604941 1.339187 0.036441 0.965739 1.191580 -0.132257 -0.781172 0.694142 -7.876176 -2.550358 0.000000 0.000000 0.000000 -0.184377 4.684970 0.159098 0.596526 4.703748 -1.155982 3.681066 -24.740190 8.113757 0.000000 0.000000 0.000000 6.151480 6.456146 3.324658 0.896603 5.296885 4.725287 0.205038 -2.077761 1.228453 0.000000 0.000000 0.000000 -0.741655 -26.501158 -15.624247 -2.052586 22.458735 1.150670 -3.635835 3.324824 -0.735966 0.000000 0.000000 0.000000 3.818436 -16.573362 8.007225 4.341358 12.411666 3.013437 5.129697 2.355750 2.094356 0.000000 0.000000 0.000000 
